<svg width="122" height="47" viewBox="0 0 122 47" fill="none" xmlns="http://www.w3.org/2000/svg">
<g clip-path="url(#clip0)">
<path d="M34.7334 35.5409C36.0519 32.9997 37.2981 30.6106 38.5272 28.2107C38.7016 27.8722 38.9313 27.7608 39.2885 27.7758C39.784 27.7972 40.2902 27.7201 40.775 27.7929C41.5534 27.9086 41.9298 27.5208 42.2509 26.8844C44.0691 23.2847 45.2366 19.5135 45.4833 15.451C45.7193 11.5963 45.6151 7.74372 45.6492 3.88902C45.6577 2.87981 45.6534 2.87124 46.587 2.87124C54.702 2.86909 62.8171 2.86909 70.9342 2.87124C71.8487 2.87124 71.8551 2.87981 71.8551 3.80545C71.8572 11.3392 71.8551 18.875 71.8551 26.4087C71.8551 26.6594 71.8742 26.9101 71.8508 27.1587C71.8083 27.6279 72.0124 27.7929 72.4675 27.7801C73.282 27.7586 74.0986 27.7993 74.9131 27.7672C75.4277 27.7458 75.6701 27.8465 75.6595 28.455C75.6234 30.5977 75.6319 32.7404 75.6553 34.8809C75.6616 35.3909 75.5149 35.6202 74.9939 35.5409C74.8897 35.5259 74.7812 35.5387 74.6749 35.5387C61.5985 35.5387 48.52 35.5387 35.4437 35.5387C35.2714 35.5409 35.0949 35.5409 34.7334 35.5409ZM50.2511 27.6793C50.4659 27.7329 50.5616 27.7801 50.6594 27.7801C54.9487 27.7843 59.2359 27.7651 63.5252 27.8036C64.1993 27.8101 64.176 27.4886 64.176 27.0215C64.1696 21.8084 64.1611 16.5952 64.1845 11.3799C64.1866 10.7585 63.9888 10.6085 63.404 10.6128C60.3205 10.6385 57.2369 10.6214 54.1534 10.6256C53.3049 10.6256 53.3006 10.6342 53.2942 11.4956C53.2666 14.7889 52.9242 18.0479 52.2012 21.2598C51.7184 23.4132 51.04 25.5109 50.2511 27.6793Z" fill="#030303"/>
<path d="M101.312 12.8776C99.7791 11.3735 98.0098 10.3471 95.8535 10.0364C90.9198 9.32506 86.2732 12.7427 85.5055 17.8273C84.725 22.9976 88.2318 27.4544 92.906 28.3029C96.2745 28.9136 99.1157 27.8572 101.436 25.3481C102.059 24.6753 102.048 24.6582 102.822 25.226C104.538 26.4816 106.25 27.7415 107.962 28.9971C103.352 35.8859 93.2441 38.3414 85.4864 33.2354C77.5691 28.0243 75.5637 17.133 81.0843 9.43862C86.6369 1.70564 97.391 0.143615 104.768 5.9996C104.781 6.18173 104.726 6.34029 104.641 6.50313C103.528 8.62654 102.42 10.7521 101.312 12.8776Z" fill="#030303"/>
<path d="M18.682 35.5368C12.768 35.5389 6.85394 35.541 0.939907 35.5389C0.00846295 35.5389 0.00208322 35.5303 0.00208322 34.6261C-4.33648e-05 24.3519 -4.33648e-05 14.0755 0.00208322 3.79702C0.00208322 2.87995 0.00846295 2.87352 0.927147 2.87138C2.8751 2.86709 4.82305 2.86709 6.771 2.87138C7.68756 2.87352 7.69394 2.88209 7.69394 3.81202C7.69819 11.02 7.69819 18.2281 7.70245 25.4361C7.70245 25.9718 7.69606 26.5074 7.70457 27.041C7.71733 27.8252 7.72371 27.8359 8.54457 27.838C12.6531 27.8423 16.7617 27.8381 20.8681 27.8423C21.4338 27.8423 21.9995 27.868 22.5651 27.8809C22.4716 28.8451 21.84 29.5672 21.4253 30.3836C20.5428 32.117 19.6815 33.8655 18.682 35.5368Z" fill="#030303"/>
<path d="M18.6818 35.5365C19.6813 33.8652 20.5426 32.1167 21.423 30.3812C21.8356 29.5669 22.4672 28.8449 22.5629 27.8785C22.6819 27.8185 22.7989 27.7585 22.918 27.6985C25.4316 27.6899 27.9452 27.6792 30.461 27.6707C32.1878 27.8785 33.9209 27.7092 35.6499 27.7628C36.0284 27.7735 36.409 27.7649 36.9577 27.7649C36.4984 28.6627 36.1198 29.4105 35.7328 30.1519C32.9512 35.4851 30.1654 40.8161 27.3945 46.1535C27.1329 46.6571 26.8968 47.0042 26.2206 46.9977C22.0057 46.9613 17.7908 46.9785 13.5759 46.9763C13.3718 46.9763 13.1591 47.0042 12.9146 46.8135C13.6184 45.4571 14.3181 44.1051 15.022 42.7552C16.1895 40.514 17.3591 38.2748 18.5287 36.0357C18.6117 35.8793 18.7159 35.7293 18.6818 35.5365Z" fill="#E00714"/>
<path d="M101.312 12.8776C102.42 10.7521 103.528 8.6265 104.641 6.50309C104.726 6.34025 104.781 6.18169 104.768 5.99956C105.138 5.841 105.215 5.4596 105.376 5.15534C106.178 3.64474 106.965 2.12771 107.75 0.608539C107.939 0.242138 108.141 -0.00212871 108.628 1.39843e-05C112.951 0.0214409 117.275 0.0107275 121.6 0.0150128C121.736 0.0150128 121.883 0.00644207 122 0.199285C121.983 0.595683 121.721 0.947085 121.53 1.31563C118.627 6.9102 115.699 12.4919 112.824 18.1015C112.413 18.905 111.96 19.2071 111.044 19.1943C107.182 19.1343 103.318 19.1707 99.4559 19.1643C99.071 19.1643 98.6776 19.2393 98.2246 19.0529C99.1178 16.9187 100.377 14.9774 101.312 12.8776Z" fill="#039EE0"/>
<path d="M30.4612 27.673C27.9476 27.6816 25.4339 27.6923 22.9182 27.7009C22.9012 27.3816 22.8671 27.0624 22.8671 26.7431C22.865 19.143 22.865 11.5428 22.865 3.94269C22.865 3.79913 22.882 3.65557 22.8629 3.51415C22.7842 2.96776 23.0607 2.85634 23.5413 2.86063C25.2404 2.87991 26.9417 2.85634 28.6408 2.87563C29.232 2.88205 29.9848 2.61422 30.3761 3.01919C30.761 3.41987 30.5016 4.17196 30.5037 4.76763C30.5122 12.0099 30.5101 19.2544 30.508 26.4967C30.5058 26.8909 30.4761 27.2809 30.4612 27.673Z" fill="#030303"/>
</g>
<defs>
<clipPath id="clip0">
<rect width="122" height="47" fill="white"/>
</clipPath>
</defs>
</svg>
