<svg width="120" height="39" viewBox="0 0 120 39" fill="none" xmlns="http://www.w3.org/2000/svg">
<g clip-path="url(#clip0)">
<path d="M55.313 38.9901C50.7997 38.9901 46.2855 38.986 41.7722 38.9983C41.4098 38.9991 41.28 38.9392 41.2808 38.5185C41.2943 29.8234 41.2927 21.1284 41.2855 12.4341C41.2855 12.1532 41.366 11.9486 41.5388 11.7374C44.6614 7.91695 47.7791 4.09155 50.8921 0.263689C51.0426 0.0788274 51.1971 0.00652602 51.4313 0.00652602C60.3918 0.0122773 69.3531 0.0130989 78.3136 0.00488281C78.6163 0.00488281 78.7151 0.0681465 78.7151 0.405827C78.7047 9.14196 78.7063 17.8781 78.7119 26.6134C78.7119 26.8632 78.6418 27.0497 78.4904 27.2419C75.4882 31.0575 72.4892 34.8771 69.4997 38.7034C69.3181 38.9359 69.1253 38.9958 68.8537 38.995C64.3404 38.9884 59.8263 38.9901 55.313 38.9901ZM55.3066 33.611C57.7552 33.6086 59.882 32.8108 61.5835 30.9351C61.7707 30.7288 61.7794 30.6212 61.5779 30.4207C60.8052 29.6501 60.0413 28.8704 59.2997 28.0677C59.0775 27.8269 58.9676 27.8631 58.786 28.0874C58.6258 28.2854 58.4291 28.4555 58.2355 28.6206C56.5468 30.0601 54.1675 30.0313 52.6341 28.5483C51.7053 27.6495 51.2617 26.5083 51.1939 25.2224C51.096 23.3574 51.6281 21.7405 53.2084 20.6806C54.9935 19.4827 57.3426 19.9288 58.8027 21.6871C58.954 21.8695 59.0241 21.9253 59.2129 21.7257C60.027 20.863 60.8554 20.0135 61.6886 19.1697C61.8535 19.0029 61.8392 18.8994 61.691 18.7383C61.37 18.39 61.0346 18.0605 60.6658 17.768C59.0448 16.4806 57.1801 16.0402 55.1736 16.0821C50.0134 16.1897 46.1183 20.5828 46.8917 26.2051C47.5099 30.6837 50.9159 33.6217 55.3066 33.611Z" fill="#DC2234"/>
<path d="M13.9965 38.9906C9.48322 38.9906 4.96992 38.9857 0.45741 38.9996C0.0886033 39.0005 0.000185321 38.8969 0.00098188 38.5248C0.0105406 29.8166 0.00894747 21.1092 0.00337156 12.401C0.00337156 12.1356 0.0790446 11.94 0.242339 11.7396C3.35768 7.93225 6.46824 4.12082 9.57403 0.304459C9.74051 0.0998792 9.9046 0.0045729 10.1746 0.0045729C19.1216 0.012789 28.0677 0.0136106 37.0147 0.00292969C37.3596 0.00292969 37.4225 0.11549 37.4225 0.442489C37.4146 9.16384 37.4154 17.8852 37.4193 26.6065C37.4193 26.8514 37.3612 27.0436 37.2067 27.2392C34.2036 31.0539 31.2062 34.8735 28.2151 38.6973C28.0494 38.9093 27.8821 38.9964 27.6145 38.9955C23.0757 38.9881 18.5361 38.9906 13.9965 38.9906ZM20.2033 24.7283C20.2033 22.1132 20.1977 19.498 20.2105 16.8828C20.2121 16.5534 20.1181 16.4794 19.8114 16.4802C16.1608 16.4909 12.5109 16.4909 8.86031 16.4802C8.55841 16.4794 8.44849 16.5378 8.45645 16.8787C8.48115 18.001 8.48752 19.1242 8.46681 20.2465C8.42857 22.3276 8.38237 24.4161 7.88213 26.4439C7.52846 27.8767 6.73031 28.9933 5.28695 29.4608C5.06869 29.5315 5.1125 29.6613 5.1125 29.7985C5.10931 30.8255 5.11887 31.8525 5.10533 32.8787C5.10214 33.1252 5.15711 33.2155 5.40962 33.204C7.86461 33.0956 9.73573 32.0242 10.8382 29.7007C11.2731 28.7838 11.4786 27.7913 11.6554 26.793C12.0139 24.767 12.0768 22.7138 12.1756 20.6647C12.1907 20.3508 12.2815 20.2835 12.5667 20.2892C13.4819 20.3073 14.3988 20.2974 15.314 20.2941C16.2484 20.29 16.2492 20.2876 16.2484 21.2406C16.2436 24.9921 16.2396 28.7435 16.2301 32.495C16.2293 32.7653 16.2221 32.9518 16.5941 32.9395C17.6687 32.9025 18.744 32.9033 19.8194 32.9115C20.1332 32.914 20.2121 32.8088 20.2105 32.4909C20.1977 29.9036 20.2033 27.3156 20.2033 24.7283Z" fill="#DC2234"/>
<path d="M96.5605 38.9902C92.0472 38.9902 87.5339 38.9844 83.0206 39C82.6407 39.0017 82.5674 38.8776 82.5674 38.5177C82.5761 29.8235 82.5745 21.1293 82.5698 12.435C82.5698 12.1737 82.6327 11.9725 82.8 11.7679C85.8811 8.00163 88.9574 4.23128 92.0233 0.452709C92.283 0.133104 92.5411 -0.000817851 92.9577 3.7559e-06C101.811 0.0147927 110.665 0.0139711 119.519 0.00164697C119.901 0.000825363 120 0.0944885 119.999 0.492968C119.987 9.18721 119.989 17.8814 119.995 26.5757C119.995 26.8534 119.922 27.0654 119.753 27.2798C116.767 31.0732 113.785 34.8698 110.81 38.6738C110.623 38.9138 110.432 38.9976 110.139 38.9967C105.613 38.9877 101.087 38.9902 96.5605 38.9902ZM89.3111 24.8101C89.3111 27.5057 89.3166 30.2014 89.3039 32.8971C89.3023 33.2069 89.3827 33.2866 89.6791 33.2816C90.8596 33.2636 92.0409 33.2652 93.2214 33.2808C93.4906 33.2841 93.5511 33.1954 93.5488 32.9341C93.536 31.7986 93.5527 30.6624 93.5368 29.5269C93.5328 29.2352 93.6173 29.1605 93.8937 29.1646C94.8615 29.1785 95.8309 29.1925 96.7987 29.1564C100.801 29.006 103.499 25.7212 102.997 21.6272C102.793 19.9634 102.051 18.6225 100.701 17.6703C99.4807 16.8093 98.1003 16.4519 96.6418 16.4354C94.3334 16.4091 92.0249 16.4305 89.7165 16.4116C89.3796 16.4091 89.3023 16.5085 89.3047 16.8446C89.3174 19.5008 89.3111 22.1554 89.3111 24.8101Z" fill="#DC2234"/>
<path d="M93.5422 22.8185C93.5422 22.0659 93.5406 21.3125 93.5438 20.5599C93.5446 20.4186 93.4968 20.2378 93.7357 20.2452C94.7952 20.2806 95.8625 20.1335 96.9124 20.357C98.1988 20.6306 98.9277 21.5327 98.9484 22.8202C98.9675 24.0057 98.2164 24.9456 96.9857 25.271C96.2011 25.478 95.4005 25.3827 94.6064 25.3934C94.2662 25.3983 93.8241 25.5479 93.6107 25.3252C93.398 25.1034 93.5533 24.649 93.5454 24.2966C93.5334 23.8044 93.5422 23.3115 93.5422 22.8185Z" fill="#DD2337"/>
</g>
<defs>
<clipPath id="clip0">
<rect width="120" height="39" fill="white"/>
</clipPath>
</defs>
</svg>
