<svg id="Layer_1" data-name="Layer 1" xmlns="http://www.w3.org/2000/svg" viewBox="0 0 58 58"><path d="M29,58A29,29,0,1,1,58,29,29,29,0,0,1,29,58ZM29,2A27,27,0,1,0,56,29,27,27,0,0,0,29,2Z"/><path d="M39.8,23.67H18.2a1.07,1.07,0,0,0-1.06,1.07V40.36a1.07,1.07,0,0,0,1.06,1.07H39.8a1.07,1.07,0,0,0,1.06-1.07V24.74A1.07,1.07,0,0,0,39.8,23.67ZM38.73,39.3H19.27V25.8H38.73V39.3Z"/><path d="M38,20.12H20a1.07,1.07,0,0,0,0,2.13H38a1.07,1.07,0,0,0,0-2.13Z"/><path d="M36.24,16.57H21.76a1.07,1.07,0,1,0,0,2.13H36.24a1.07,1.07,0,1,0,0-2.13Z"/></svg>