<svg id="Layer_1" data-name="Layer 1" xmlns="http://www.w3.org/2000/svg" viewBox="0 0 14.5 13.35"><path d="M14.5,5.36a4.8,4.8,0,0,0-2.18-3.84A8.72,8.72,0,0,0,7.25,0,8.72,8.72,0,0,0,2.18,1.52,4.8,4.8,0,0,0,0,5.36,4.8,4.8,0,0,0,2.18,9.2a8.72,8.72,0,0,0,5.07,1.52h.43l4,2.23L12,12.5h0l-.25.44.75.41V9.1A4.78,4.78,0,0,0,14.5,5.36ZM7.8,10.2l0-.5-.52,0A7.75,7.75,0,0,1,2.77,8.39,3.8,3.8,0,0,1,1,5.36a3.8,3.8,0,0,1,1.77-3A7.75,7.75,0,0,1,7.25,1a7.75,7.75,0,0,1,4.48,1.33,3.8,3.8,0,0,1,1.77,3,3.85,3.85,0,0,1-1.84,3.08l-.21.15v3.06L8.05,9.77Z"/><polygon points="7.77 9.7 7.8 10.2 8.04 9.77 7.92 9.7 7.77 9.7"/></svg>