<svg width="61" height="16" viewBox="0 0 61 16" fill="none" xmlns="http://www.w3.org/2000/svg">
<path d="M16.5 6.98321H10.9684L13.3239 4.62776L11.8722 3.17399L9.51466 5.53158V0H7.48321V5.53158L5.12563 3.17399L3.67399 4.62776L6.03158 6.98321H0.5V9.01466H6.03158L3.67399 11.3722L5.12563 12.8239L7.48321 10.4684V16H9.51466V10.4684L11.8722 12.8239L13.3239 11.3722L10.9684 9.01466H16.5V6.98321Z" fill="#FB532B"/>
<path d="M20.5 2.95377H25.1194C26.1893 2.95377 27.1383 3.15381 27.9663 3.55387C28.7944 3.95394 29.4364 4.52147 29.8922 5.25648C30.3481 5.99148 30.5761 6.85209 30.5761 7.8383C30.5761 8.82451 30.3481 9.68511 29.8922 10.4201C29.4364 11.1551 28.7944 11.7227 27.9663 12.1227C27.1383 12.5228 26.1893 12.7228 25.1194 12.7228H20.5V2.95377ZM25.0077 10.5178C25.8451 10.5178 26.5149 10.2806 27.0174 9.80606C27.5291 9.33157 27.7849 8.67564 27.7849 7.8383C27.7849 7.00095 27.5291 6.34503 27.0174 5.87053C26.5149 5.39604 25.8451 5.15879 25.0077 5.15879H23.2632V10.5178H25.0077Z" fill="#2E3F4B"/>
<path d="M41.5978 2.95377L37.411 12.7228H34.6897L30.5169 2.95377H33.5034L36.155 9.31761L38.8624 2.95377H41.5978Z" fill="#2E3F4B"/>
<path d="M45.6027 12.9182C44.8119 12.9182 44.0443 12.8205 43.3 12.6251C42.5557 12.4298 41.951 12.1692 41.4858 11.8436L42.3929 9.80606C42.8302 10.0945 43.3373 10.3271 43.9141 10.5039C44.4909 10.6806 45.0585 10.769 45.6167 10.769C46.6773 10.769 47.2077 10.5039 47.2077 9.97353C47.2077 9.69442 47.0541 9.48973 46.7471 9.35948C46.4494 9.21992 45.9656 9.07571 45.2957 8.92685C44.5607 8.76868 43.9467 8.60121 43.4536 8.42444C42.9605 8.23836 42.5371 7.94529 42.1836 7.54523C41.83 7.14516 41.6533 6.60554 41.6533 5.92635C41.6533 5.33091 41.8161 4.79594 42.1417 4.32144C42.4673 3.83764 42.9511 3.45618 43.5931 3.17707C44.2444 2.89795 45.0399 2.75839 45.9796 2.75839C46.6215 2.75839 47.2542 2.83282 47.8775 2.98169C48.5009 3.12124 49.0498 3.33058 49.5243 3.60969L48.673 5.6612C47.7426 5.15879 46.8402 4.90758 45.9656 4.90758C45.4167 4.90758 45.0166 4.99132 44.7654 5.15879C44.5142 5.31695 44.3886 5.52629 44.3886 5.7868C44.3886 6.04731 44.5375 6.24269 44.8352 6.37294C45.1329 6.50319 45.6121 6.6381 46.2726 6.77766C47.0169 6.93582 47.631 7.10794 48.1148 7.29402C48.6079 7.4708 49.0312 7.75921 49.3848 8.15928C49.7476 8.55004 49.929 9.08501 49.929 9.7642C49.929 10.3503 49.7662 10.8807 49.4406 11.3552C49.115 11.8297 48.6265 12.2111 47.9752 12.4995C47.324 12.7786 46.5331 12.9182 45.6027 12.9182Z" fill="#2E3F4B"/>
<path d="M60.5 2.95377V12.7228H58.2252L53.9129 7.51731V12.7228H51.2054V2.95377H53.4802L57.7926 8.15928V2.95377H60.5Z" fill="#2E3F4B"/>
</svg>
