<svg xmlns="http://www.w3.org/2000/svg" viewBox="0 0 21 21">
    
    <path class="cls-1"
        d="M10.52,5.09a5.39,5.39,0,1,0,5.39,5.39A5.39,5.39,0,0,0,10.52,5.09Zm0,8.9A3.5,3.5,0,0,1,7,10.48,3.49,3.49,0,1,1,10.52,14ZM17.37,4.9a1.27,1.27,0,1,0-2.53,0,1.27,1.27,0,0,0,2.53,0Zm3.56,1.26a6.3,6.3,0,0,0-1.69-4.4A6.3,6.3,0,0,0,14.84.07C13.1,0,7.9,0,6.16.07a6.37,6.37,0,0,0-4.4,1.69A6.3,6.3,0,0,0,.07,6.16C0,7.9,0,13.1.07,14.84a6.37,6.37,0,0,0,1.69,4.4,6.37,6.37,0,0,0,4.4,1.69c1.74.09,6.94.09,8.68,0a6.3,6.3,0,0,0,4.4-1.69,6.37,6.37,0,0,0,1.69-4.4C21,13.1,21,7.9,20.93,6.16Zm-2.25,10.5a3.5,3.5,0,0,1-2,2c-1.41.56-4.69.42-6.19.42s-4.82.14-6.18-.42a3.58,3.58,0,0,1-2-2C1.76,15.3,1.9,12,1.9,10.48s-.14-4.78.42-6.19a3.65,3.65,0,0,1,2-2C5.7,1.76,9,1.9,10.52,1.9s4.78-.14,6.19.42a3.56,3.56,0,0,1,2,2c.56,1.41.42,4.69.42,6.19S19.24,15.3,18.68,16.66Z" />
</svg>