<svg xmlns="http://www.w3.org/2000/svg" viewBox="0 0 23.95 19.45">
    
    <path class="cls-1"
        d="M21.52,4.83A10.44,10.44,0,0,0,24,2.3a9.47,9.47,0,0,1-2.81.75A4.85,4.85,0,0,0,23.3.33a10.66,10.66,0,0,1-3.1,1.22,4.92,4.92,0,0,0-8.39,4.5A14.31,14.31,0,0,1,1.64.89,4.81,4.81,0,0,0,1,3.38,4.84,4.84,0,0,0,3.19,7.45,5,5,0,0,1,.94,6.84v0a4.93,4.93,0,0,0,3.94,4.83,5.81,5.81,0,0,1-1.27.19,6,6,0,0,1-.94-.1,4.89,4.89,0,0,0,4.6,3.42,9.87,9.87,0,0,1-6.1,2.11A8.68,8.68,0,0,1,0,17.25a13.68,13.68,0,0,0,7.55,2.2,13.85,13.85,0,0,0,14-14Z" />
</svg>