<svg xmlns="http://www.w3.org/2000/svg" viewBox="0 0 25.24 15">
    
    <path class="cls-1"
        d="M24.7,1c.14-.56,0-1-.84-1H21.09a1.21,1.21,0,0,0-1.21.8A24,24,0,0,1,16.5,6.47c-.66.61-.94.84-1.31.84-.14,0-.42-.23-.42-.79V1c0-.7-.19-1-.8-1H9.66A.66.66,0,0,0,9,.66c0,.65,1,.79,1.08,2.67V7.41c0,.89-.14,1.07-.51,1.07C8.58,8.48,6.33,5,5,1.08,4.69.33,4.41,0,3.7,0H.94C.19,0,0,.38,0,.8,0,1.55.94,5.16,4.36,10c2.3,3.29,5.53,5,8.44,5,1.73,0,2-.37,2-1,0-3.14-.14-3.47.7-3.47.42,0,1.12.23,2.76,1.83C20.11,14.2,20.44,15,21.47,15h2.76c.8,0,1.18-.37.94-1.17-.51-1.6-4-5-4.22-5.2-.42-.52-.28-.75,0-1.22C21,7.41,24.33,2.63,24.7,1Z" />
</svg>