<svg width="202" height="23" viewBox="0 0 202 23" fill="none" xmlns="http://www.w3.org/2000/svg">
<g clip-path="url(#clip0)">
<path d="M13.0944 22.9232H0V10.3317H13.0944V22.9232ZM2.26234 20.6634H10.8321V12.5915H2.26234V20.6634Z" fill="#8BC540"/>
<path d="M13.0944 12.5915H0V0H13.0944V12.5915ZM2.26234 10.3317H10.8321V2.25978H2.26234V10.3317Z" fill="#8BC540"/>
<path d="M11.1817 0.312678L0.350586 10.6439L1.91296 12.2781L12.7441 1.94695L11.1817 0.312678Z" fill="#8BC540"/>
<path d="M1.91296 10.6445L0.350586 12.2787L11.1817 22.6099L12.7441 20.9757L1.91296 10.6445Z" fill="#8BC540"/>
<path d="M66.4316 11.8458C66.4316 8.26176 69.4225 5.34665 73.1508 5.34665C76.8791 5.34665 79.8699 8.26628 79.8699 11.8458C79.8699 15.4298 76.8791 18.3223 73.1508 18.3223C69.4225 18.3223 66.4316 15.4298 66.4316 11.8458ZM77.404 11.8458C77.404 9.52271 75.576 7.6471 73.1553 7.6471C70.7346 7.6471 68.9021 9.52271 68.9021 11.8458C68.9021 14.1462 70.7301 16.0218 73.1553 16.0218C75.576 16.0218 77.404 14.1462 77.404 11.8458Z" fill="#30454F"/>
<path d="M26.2387 16.0083C23.8225 16.0083 22.0036 14.1417 22.0036 11.8458C22.0036 9.52722 23.827 7.66065 26.2387 7.66065C27.4422 7.66065 28.4965 8.12616 29.2521 8.8764C29.9579 8.86285 30.3697 8.85381 31.0755 8.84025L31.7497 8.16683C30.5416 6.48104 28.5327 5.36923 26.2387 5.36923C22.5239 5.36923 19.5376 8.2753 19.5376 11.8458C19.5376 15.4162 22.5194 18.2997 26.2387 18.2997C28.5372 18.2997 30.5507 17.1969 31.7588 15.5066L30.9624 14.7111C30.3109 14.7247 29.9579 14.7292 29.3019 14.7428C28.5417 15.5247 27.4694 16.0083 26.2387 16.0083Z" fill="#30454F"/>
<path d="M39.618 7.80076H34.8354V7.00532C35.3377 6.50365 35.6182 6.22344 36.1159 5.72629H46.9073V6.52625C46.4051 7.02792 46.1245 7.30813 45.6268 7.80528H42.1745V16.6772C41.6768 17.1743 41.3962 17.4545 40.8985 17.9517H39.618V7.80076Z" fill="#30454F"/>
<path d="M51.9797 5.72176H53.2557V6.90588C54.1063 6.0562 55.5995 5.36923 57.3731 5.36923C61.1151 5.36923 63.762 8.2753 63.762 11.8457C63.762 15.4162 61.1105 18.2997 57.3731 18.2997C55.3596 18.2997 54.0611 17.5178 53.2557 16.6455V21.6848C52.7579 22.182 52.4774 22.4622 51.9797 22.9593H50.6992V7.00531C51.2015 6.50364 51.482 6.22343 51.9797 5.72176ZM61.2779 11.8457C61.2779 9.52722 59.7169 7.63805 57.4184 7.63805C55.1198 7.63805 53.1109 9.17469 53.1109 11.8457C53.1109 14.4942 55.1244 16.0309 57.4184 16.0309C59.7124 16.0309 61.2779 14.1643 61.2779 11.8457Z" fill="#30454F"/>
<path d="M84.7926 5.72177H86.0685V14.6117L92.1768 5.72177H94.9007V16.6636C94.3985 17.1653 94.1179 17.4455 93.6202 17.9426H92.3443V9.03008L86.2133 17.9426H83.5166V7.00532C84.0098 6.50365 84.2903 6.22344 84.7926 5.72177Z" fill="#30454F"/>
<path d="M166.251 14.2004H162.463V17.9833H166.251V14.2004Z" fill="#8BC540"/>
<path d="M103.068 7.84102H98.2852V7.04106C98.7874 6.53939 99.0679 6.25917 99.5656 5.76202H110.357V6.56198C109.855 7.06366 109.574 7.34387 109.077 7.84102H105.624V16.7129C105.126 17.21 104.846 17.4903 104.348 17.9874H103.068V7.84102Z" fill="#30454F"/>
<path d="M147.799 5.7579H149.075V14.6479L155.183 5.7579H157.907V16.6997C157.405 17.2014 157.124 17.4816 156.627 17.9788H155.351V9.07073L149.22 17.9833H146.523V7.04146C147.016 6.53979 147.297 6.25957 147.799 5.7579Z" fill="#30454F"/>
<path d="M120.185 15.9224C118.144 15.9224 116.533 14.5891 116.081 12.7903H122.158H126.8V10.7113H126.791C126.271 7.64256 123.529 5.28336 120.189 5.28336C116.475 5.28336 113.488 8.18943 113.488 11.7599C113.488 15.3303 116.47 18.2138 120.189 18.2138C122.248 18.2138 124.081 17.328 125.307 15.9269L124.515 15.136C123.868 15.0953 123.465 15.0727 122.818 15.0366C122.108 15.5925 121.198 15.9224 120.185 15.9224ZM120.185 7.57477C122.221 7.57477 123.827 8.90352 124.289 10.7068H116.085C116.542 8.90352 118.153 7.57477 120.185 7.57477Z" fill="#30454F"/>
<path d="M134.949 5.6178H137.528L143.328 17.8432H140.722L136.247 8.24366L131.75 17.8432H129.144L134.949 5.6178Z" fill="#30454F"/>
<path d="M192.774 18.1957C188.811 17.8884 186.073 15.6738 186.073 11.9045C186.073 8.1352 188.974 5.8935 192.774 5.61329V2.30046C193.277 1.79879 193.557 1.51857 194.055 1.02142H195.322V5.60877C199.122 5.8935 202 8.13068 202 11.9C202 15.6693 199.285 17.8839 195.322 18.1912V21.7255C194.824 22.2226 194.543 22.5029 194.046 23H192.77V18.1957H192.774ZM192.774 7.75556C190.535 7.75556 188.553 9.33288 188.553 11.9045C188.553 14.4761 190.63 15.9811 192.774 15.9811V7.75556ZM199.543 11.9C199.543 9.33288 197.561 7.77363 195.322 7.75104V15.9766C197.444 15.954 199.543 14.4716 199.543 11.9Z" fill="#30454F"/>
<path d="M172.364 5.76695H173.639V6.95108C174.49 6.1014 175.983 5.41443 177.757 5.41443C181.499 5.41443 184.146 8.3205 184.146 11.8909C184.146 15.4614 181.494 18.3449 177.757 18.3449C175.743 18.3449 174.445 17.563 173.639 16.6907V21.73C173.142 22.2272 172.861 22.5074 172.364 23.0045H171.083V7.05051C171.581 6.54432 171.861 6.2641 172.364 5.76695ZM181.662 11.8909C181.662 9.57242 180.101 7.68324 177.802 7.68324C175.504 7.68324 173.495 9.21989 173.495 11.8909C173.495 14.5394 175.508 16.0761 177.802 16.0761C180.096 16.0761 181.662 14.205 181.662 11.8909Z" fill="#30454F"/>
</g>
<defs>
<clipPath id="clip0">
<rect width="202" height="23" fill="white"/>
</clipPath>
</defs>
</svg>
