<svg width="108" height="33" viewBox="0 0 108 33" fill="none" xmlns="http://www.w3.org/2000/svg">
<g clip-path="url(#clip0)">
<path d="M69.1571 0.0612387C68.8079 0.0420878 68.5364 0.0152766 68.2648 0.0152766C66.128 0.0114464 63.9904 0.0359595 61.8544 -0.000810102C61.214 -0.0115346 60.8029 0.186868 60.3994 0.707006C55.8279 6.6047 51.2299 12.481 46.6372 18.361C46.475 18.5679 46.294 18.7594 46.1213 18.9585C46.0685 18.9363 46.0157 18.9141 45.9622 18.8919C45.9622 18.0071 45.9622 17.1224 45.9622 16.2376C45.9622 15.3436 45.9622 14.4504 45.9622 13.5565C45.9622 12.6625 45.9622 11.7693 45.9622 10.8753C45.9622 9.9561 45.9622 9.03686 45.9622 8.11762C45.9622 7.22366 45.9622 6.33046 45.9622 5.4365C45.9622 4.54254 45.9652 3.64934 45.9614 2.75538C45.9576 1.87214 45.9486 0.988906 45.941 0.0122125C44.8338 0.0122125 43.8329 0.0122125 42.832 0.0122125C41.8009 0.0122125 40.7706 0.00225403 39.7395 0.0152766C38.7477 0.0282992 37.7505 -0.0460061 36.7851 0.0658349C36.6312 1.23787 36.6787 32.368 36.8251 32.9333C36.9163 32.9456 37.0136 32.9701 37.1117 32.9701C39.5758 32.9731 42.0393 32.9662 44.5034 32.9816C44.8504 32.9839 45.0616 32.8406 45.2577 32.5825C45.8121 31.8563 46.38 31.1408 46.9419 30.4207C51.0323 25.1787 55.1226 19.936 59.2152 14.6956C59.3917 14.4696 59.5901 14.2605 59.7779 14.0429C59.8352 14.0666 59.8926 14.0896 59.9499 14.1134C59.9499 20.3749 59.9499 26.6357 59.9499 32.8789C60.8852 33.0344 68.5673 33.0023 69.1571 32.849C69.1571 21.9668 69.1571 11.0737 69.1571 0.0612387ZM32.2083 32.9371C32.3621 31.2228 32.2927 0.674066 32.1283 0.0543444C31.8983 0.0413218 31.6509 0.0152766 31.4035 0.0145106C21.2247 0.0129785 11.046 0.0129785 0.867308 0.0168087C0.603318 0.0168087 0.340082 0.0666009 0.0987192 0.091114C-0.0574123 1.14901 -0.0129111 32.3473 0.136432 32.9218C3.1331 32.9218 6.13429 32.9218 9.22449 32.9218C9.22449 32.5166 9.22449 32.1657 9.22449 31.8141C9.22449 24.284 9.22374 16.7539 9.22751 9.22454C9.22751 8.87906 9.26899 8.53281 9.29238 8.16052C13.8881 8.16052 18.4023 8.16052 22.9874 8.16052C23.0048 8.52132 23.0342 8.84612 23.0342 9.17015C23.038 11.8758 23.0365 14.5814 23.0365 17.2871C23.0365 22.1621 23.035 27.0379 23.0402 31.913C23.0402 32.2546 23.0908 32.5963 23.1179 32.9371C26.1991 32.9371 29.1814 32.9371 32.2083 32.9371ZM107.962 32.9762C107.975 32.9203 107.988 32.8651 108.001 32.8092C102.563 27.2256 97.1243 21.6427 91.6423 16.0147C92.2442 15.2877 92.7903 14.6266 93.3371 13.9655C93.8711 13.3205 94.4052 12.6763 94.9392 12.0313C95.489 11.3671 96.0389 10.7022 96.5887 10.0373C97.1386 9.37239 97.6884 8.70824 98.2383 8.04332C98.7881 7.3784 99.338 6.71425 99.8879 6.04933C100.422 5.40433 100.956 4.76009 101.49 4.11433C102.04 3.44941 102.595 2.78909 103.137 2.11881C103.666 1.46538 104.251 0.853318 104.812 0.0122125C104.387 0.0122125 104.14 0.0122125 103.893 0.0122125C100.901 0.0122125 97.9094 0.0252351 94.9173 0.000721967C94.3358 -0.00387424 93.9496 0.181506 93.577 0.642659C90.3118 4.69192 87.0232 8.72126 83.7399 12.756C83.522 13.0241 83.2957 13.2845 83.0732 13.5488C83.0219 13.5304 82.9706 13.512 82.9193 13.4937C82.905 13.1719 82.8786 12.8509 82.8778 12.5292C82.8748 8.64772 82.8778 4.76699 82.8733 0.885492C82.8725 0.0451519 82.8439 0.0160427 82.0278 0.0137446C79.4882 0.00838231 76.9494 0.00914834 74.4098 0.0152766C74.1722 0.0160427 73.9338 0.068133 73.7174 0.0941782C73.5605 1.50292 73.6231 32.3756 73.7739 32.9211C75.0086 33.0559 82.2465 33.0015 82.8756 32.8276C82.8756 31.4035 82.8756 29.9527 82.8756 28.5018C82.8756 27.0716 82.8741 25.6422 82.8763 24.212C82.8786 22.7665 82.8846 21.321 82.8891 19.8763C82.9457 19.854 83.0023 19.8311 83.0588 19.8088C83.2844 20.0325 83.5144 20.2508 83.7347 20.4799C87.564 24.4617 91.3964 28.4405 95.2122 32.4346C95.5712 32.81 95.9242 32.9885 96.4492 32.9854C100.07 32.9639 103.69 32.9739 107.311 32.9739C107.528 32.9762 107.745 32.9762 107.962 32.9762Z" fill="#FC4C02"/>
<path d="M69.1563 0.0621816C69.1563 11.0739 69.1563 21.9669 69.1563 32.8508C68.5657 33.004 60.8844 33.0361 59.9491 32.8806C59.9491 26.6374 59.9491 20.3759 59.9491 14.1151C59.8918 14.0913 59.8344 14.0684 59.7771 14.0446C59.5893 14.2614 59.3909 14.4713 59.2144 14.6973C55.1218 19.9377 51.0315 25.1805 46.9412 30.4224C46.3792 31.1425 45.8113 31.858 45.2569 32.5842C45.06 32.8416 44.8496 32.9848 44.5026 32.9833C42.0392 32.968 39.5751 32.9741 37.1109 32.9718C37.0129 32.9718 36.9156 32.9473 36.8243 32.935C36.6787 32.3697 36.6312 1.23881 36.7843 0.0675439C37.7505 -0.0442972 38.7477 0.0300082 39.7387 0.0169856C40.7691 0.00396302 41.8001 0.0139215 42.8312 0.0139215C43.8321 0.0139215 44.833 0.0139215 45.9403 0.0139215C45.9478 0.990615 45.9576 1.87385 45.9606 2.75709C45.9644 3.65105 45.9614 4.54425 45.9614 5.43821C45.9614 6.33217 45.9614 7.22537 45.9614 8.11933C45.9614 9.03857 45.9614 9.95782 45.9614 10.8771C45.9614 11.771 45.9614 12.6642 45.9614 13.5582C45.9614 14.4521 45.9614 15.3453 45.9614 16.2393C45.9614 17.1241 45.9614 18.0088 45.9614 18.8936C46.0142 18.9158 46.067 18.938 46.1205 18.9603C46.2925 18.7618 46.4743 18.5703 46.6364 18.3627C51.2291 12.4819 55.8271 6.60565 60.3986 0.708715C60.8021 0.188577 61.2132 -0.0098256 61.8536 0.000898882C63.9896 0.0369025 66.1272 0.0131554 68.264 0.0169856C68.5363 0.0169856 68.8078 0.0437968 69.1563 0.0621816Z" fill="#FC4C02"/>
<path d="M32.2075 32.9393C29.1807 32.9393 26.1984 32.9393 23.118 32.9393C23.0908 32.5992 23.0403 32.2567 23.0403 31.9151C23.035 27.04 23.0365 22.1642 23.0365 17.2892C23.0365 14.5835 23.038 11.8779 23.0342 9.17228C23.0335 8.84748 23.0048 8.52345 22.9875 8.16265C18.4023 8.16265 13.8873 8.16265 9.29241 8.16265C9.26827 8.53494 9.22754 8.88042 9.22754 9.22667C9.22377 16.7568 9.22452 24.2869 9.22452 31.8163C9.22452 32.1679 9.22452 32.5187 9.22452 32.9239C6.13357 32.9239 3.13313 32.9239 0.136463 32.9239C-0.0136344 32.3487 -0.0588899 1.15113 0.0979959 0.0932413C0.339359 0.0687282 0.603349 0.019702 0.866585 0.019702C11.0453 0.0158718 21.224 0.0158718 31.4027 0.0181699C31.6501 0.0181699 31.8975 0.0442151 32.1276 0.0580037C32.292 0.676194 32.3614 31.2257 32.2075 32.9393Z" fill="#FC4C02"/>
<path d="M107.962 32.9772C107.744 32.9772 107.527 32.9772 107.31 32.9772C103.689 32.9772 100.069 32.9672 96.4486 32.9887C95.9236 32.9917 95.5699 32.8132 95.2116 32.4379C91.3958 28.443 87.5634 24.465 83.7341 20.4832C83.5138 20.2541 83.2838 20.0358 83.0582 19.8121C83.0017 19.8343 82.9451 19.8573 82.8885 19.8795C82.884 21.325 82.878 22.7705 82.8757 24.2153C82.8735 25.6455 82.875 27.0749 82.875 28.5051C82.875 29.9559 82.875 31.4068 82.875 32.8309C82.2459 33.004 75.0073 33.0584 73.7733 32.9243C73.6232 32.3789 73.5606 1.50542 73.7168 0.0974457C73.934 0.0714005 74.1716 0.0193102 74.4092 0.0185442C76.9488 0.0124159 79.4876 0.0108838 82.0272 0.0170121C82.8433 0.0185442 82.8719 0.0484195 82.8727 0.888759C82.8772 4.77026 82.8742 8.65099 82.8772 12.5325C82.8772 12.8542 82.9044 13.1752 82.9187 13.4969C82.97 13.5153 83.0213 13.5337 83.0726 13.5521C83.2951 13.2878 83.5214 13.0266 83.7393 12.7592C87.0219 8.72452 90.3112 4.69518 93.5764 0.645926C93.9482 0.184774 94.3344 -0.000606709 94.9167 0.0039895C97.9081 0.0277366 100.9 0.01548 103.892 0.01548C104.139 0.01548 104.386 0.01548 104.812 0.01548C104.251 0.85582 103.666 1.46788 103.137 2.12207C102.594 2.79235 102.039 3.45268 101.489 4.11759C100.955 4.7626 100.421 5.4076 99.8873 6.0526C99.3374 6.71675 98.7875 7.38167 98.2377 8.04659C97.6878 8.7115 97.138 9.37565 96.5881 10.0406C96.0383 10.7055 95.4892 11.3704 94.9386 12.0346C94.4046 12.6796 93.8705 13.3238 93.3365 13.9688C92.7897 14.6291 92.2436 15.2902 91.6417 16.0179C97.1237 21.646 102.562 27.2289 108.001 32.8125C107.987 32.8661 107.974 32.9213 107.962 32.9772Z" fill="#FC4C02"/>
</g>
<defs>
<clipPath id="clip0">
<rect width="108" height="33" fill="white"/>
</clipPath>
</defs>
</svg>
